<svg width="17" height="19" viewBox="0 0 17 19" fill="none" xmlns="http://www.w3.org/2000/svg">
<g clip-path="url(#clip0_0_1291)">
<path fill-rule="evenodd" clip-rule="evenodd" d="M9.91244 2.62716C9.9348 2.18148 9.97952 1.7358 10.0242 1.29012C10.0171 1.18613 10.0123 1.08449 10.0076 0.985193C9.9974 0.770946 9.98772 0.56765 9.95716 0.375309C9.9348 0.234568 9.80068 0 9.71125 0C9.5771 0 9.35355 0.117284 9.28647 0.234568C9.10764 0.539507 8.92877 0.89136 8.83933 1.24321C8.54871 2.34568 8.3028 3.44815 8.07921 4.57408C7.9451 5.23086 7.92274 5.88767 8.14629 6.521C8.28044 6.87284 8.48163 7.15431 8.88405 7.15431C9.28647 7.15431 9.51002 6.87284 9.62181 6.521C9.73361 6.19261 9.77833 5.84076 9.80068 5.48891C9.82304 5.00801 9.83978 4.53301 9.85656 4.05801C9.87334 3.58302 9.89008 3.10802 9.91244 2.62716ZM6.89435 18.2963C6.93907 18.5074 7.00611 18.742 7.31913 18.7889C7.34149 18.6668 7.36477 18.5438 7.3882 18.4198L7.38827 18.4195C7.48196 17.9243 7.57845 17.4141 7.63211 16.8889C7.8333 15.3642 7.98982 13.8395 8.14629 12.3148C8.16865 12.1037 8.14629 11.8691 8.10157 11.658C7.96746 11.1889 7.60975 10.9309 7.22969 11.0012C6.84963 11.0716 6.67076 11.3765 6.67076 11.8926C6.69312 12.5025 6.69312 13.1358 6.69312 13.7457C6.69312 14.0749 6.69061 14.4041 6.68813 14.7325C6.68318 15.3867 6.67823 16.0375 6.69312 16.6778C6.69312 17.1274 6.77077 17.5769 6.84841 18.0265C6.8639 18.1165 6.87946 18.2064 6.89435 18.2963ZM16.7759 9.80493C16.6675 9.83021 16.5575 9.85891 16.4467 9.88776C16.1463 9.96608 15.8403 10.0458 15.5463 10.063L15.3316 10.084C13.7282 10.2411 12.1436 10.3963 10.5384 10.5086C10.2701 10.5321 9.95716 10.4617 9.71125 10.3445C9.37591 10.2037 9.39827 9.82839 9.71125 9.66422C9.89008 9.57038 10.0913 9.52346 10.2701 9.52346C12.394 9.45308 14.5179 9.42962 16.6417 9.6173C16.6865 9.6173 16.7312 9.64076 16.7759 9.66422V9.80493ZM5.70945 8.48354C5.97029 8.46008 6.23113 8.43662 6.49193 8.42099C6.49193 8.37408 6.49193 8.32716 6.51429 8.25678C6.42485 8.24507 6.341 8.22747 6.25718 8.20986C6.17333 8.1923 6.08951 8.17469 6.00008 8.16298C5.20644 8.06915 4.41837 7.97531 3.6303 7.88147C2.84224 7.78767 2.05417 7.69384 1.26053 7.6C1.12639 7.58829 0.992249 7.57069 0.858112 7.55308C0.723971 7.53548 0.589833 7.51791 0.455696 7.50616C0.232131 7.50616 0.0532798 7.6 0.00856707 7.83455C-0.0361458 8.09261 0.0979928 8.28024 0.321557 8.35062C0.478051 8.39754 0.656902 8.44445 0.835753 8.44445C1.10323 8.45589 1.37204 8.46873 1.64153 8.48164C2.47575 8.52154 3.31651 8.56171 4.14449 8.56171C4.66617 8.57738 5.18781 8.53046 5.70945 8.48354Z" fill="#1F94AA"/>
</g>
<defs>
<clipPath id="clip0_0_1291">
<rect width="17" height="19" fill="white"/>
</clipPath>
</defs>
</svg>
