<svg width="244" height="82" viewBox="0 0 244 82" fill="none" xmlns="http://www.w3.org/2000/svg">
<path fill-rule="evenodd" clip-rule="evenodd" d="M88.4317 124.977C65.9385 133.223 40.9282 121.63 32.6826 99.1339C24.437 76.6382 36.0306 51.6304 58.5262 43.3848C81.0218 35.1392 106.032 46.7303 114.278 69.2284C122.523 91.7241 110.927 116.732 88.4317 124.977ZM241.506 22.5921C236.183 8.07092 220.097 0.613829 205.576 5.93926C197.691 8.82707 191.915 14.9037 189.11 22.1668L189.095 22.127C183.921 35.5089 162.517 54.6939 132.037 24.6914L132.05 24.7287C109.753 2.83006 75.9946 -5.64684 44.7509 5.80494C1.53561 21.6469 -20.7362 69.6902 -4.89669 112.905C10.9428 156.123 58.9885 178.395 102.206 162.556C133.447 151.104 153.732 122.82 156.597 91.6983L156.612 91.7356C160.483 49.1421 189.214 49.9505 201.812 56.8181L201.798 56.7808C208.63 60.5118 216.965 61.4122 224.85 58.5244C239.371 53.2015 246.829 37.1133 241.506 22.5921Z" fill="#EEEEF5"/>
</svg>
