<svg width="19" height="19" viewBox="0 0 19 19" fill="none" xmlns="http://www.w3.org/2000/svg">
<path fill-rule="evenodd" clip-rule="evenodd" d="M8.38929 1.67232C8.09081 1.55282 7.786 1.54043 7.48453 1.61781C7.36009 1.64962 7.24908 1.78295 7.30433 1.91846C7.48474 2.36132 7.22921 2.67991 7.03589 3.00112C5.80608 5.04449 4.28442 6.83363 2.63316 8.50576C2.0306 9.1161 1.40561 9.70199 0.794285 10.3026C0.711339 10.3842 0.593781 10.4412 0.651679 10.6221C0.709415 10.8027 0.850938 10.7261 0.934191 10.7814C1.56608 11.2017 1.99046 10.7512 2.44528 10.4161C4.74554 8.72137 6.56258 6.55997 8.01695 4.04953C8.28307 3.59014 8.50444 3.10614 8.61765 2.57898C8.68964 2.24309 8.68647 1.91239 8.38929 1.67232Z" fill="#1F94AA"/>
<path fill-rule="evenodd" clip-rule="evenodd" d="M11.5425 9.1873C11.5711 8.93412 11.5023 8.78722 11.2768 8.74738C11.0553 8.70818 10.9097 8.7522 10.779 8.97918C10.4995 9.46467 10.0243 9.73041 9.57893 10.013C8.01113 11.0086 6.37758 11.8789 4.75694 12.7737C4.6294 12.8442 4.49426 12.9084 4.4844 13.104C4.47209 13.342 4.6861 13.2408 4.76813 13.334C5.03832 13.6408 5.33575 13.4995 5.62292 13.3769C7.11385 12.7398 8.62103 12.1381 9.975 11.1991C10.4192 10.8911 10.854 10.5714 11.258 10.2047C11.4367 10.0425 11.4255 9.73855 11.706 9.63962C11.8203 9.59944 11.8925 9.3811 11.8622 9.19791C11.8465 9.10272 11.8404 8.98742 11.7389 8.96481C11.6197 8.93824 11.6233 9.08311 11.5425 9.1873Z" fill="#1F94AA"/>
<path fill-rule="evenodd" clip-rule="evenodd" d="M14.2916 15.0541C13.9021 14.8497 13.5968 14.8734 13.2385 15.0286C12.5483 15.3275 11.7986 15.3314 11.0612 15.3486C10.0864 15.3716 9.11429 15.3266 8.14538 15.1983C7.89992 15.1657 7.64755 15.1798 7.39895 15.1893C7.30432 15.1929 7.18805 15.209 7.19047 15.3667C7.19228 15.4952 7.26825 15.5278 7.36285 15.5901C8.10048 16.0757 8.95038 16.0256 9.75794 16.1281C10.8588 16.2677 11.9702 16.2909 13.0741 16.0979C13.4792 16.027 13.8692 15.9062 14.2412 15.7241C14.4006 15.646 14.5359 15.547 14.5438 15.333C14.5523 15.0984 14.3894 15.0737 14.2916 15.0541Z" fill="#1F94AA"/>
</svg>
