<svg width="99" height="12" viewBox="0 0 99 12" fill="none" xmlns="http://www.w3.org/2000/svg">
<path d="M6.30929 -0.000488281L4.36126 3.95008L0 4.58247L3.15174 7.65715L2.40741 11.9995L6.30929 9.94972L10.2104 11.9995L9.46538 7.65715L12.62 4.58247L8.25877 3.95008L6.30929 -0.000488281Z" fill="#FFD056"/>
<path d="M27.933 -0.000488281L25.9814 3.95008L21.6201 4.58247L24.7748 7.65715L24.0304 11.9995L27.933 9.94972L31.8335 11.9995L31.0891 7.65715L34.2438 4.58247L29.8825 3.95008L27.933 -0.000488281Z" fill="#FFD056"/>
<path d="M49.5578 -0.000488281L47.6054 3.95008L43.2441 4.58247L46.3988 7.65715L45.6545 11.9995L49.5578 9.94972L53.4582 11.9995L52.7139 7.65715L55.8678 4.58247L51.5065 3.95008L49.5578 -0.000488281Z" fill="#FFD056"/>
<path d="M71.1775 -0.000488281L69.2294 3.95008L64.8682 4.58247L68.0228 7.65715L67.2814 11.9995L71.1804 9.94972L75.0808 11.9995L74.3321 7.65715L77.4867 4.58247L73.1255 3.95008L71.1775 -0.000488281Z" fill="#FFD056"/>
<path d="M92.7956 -0.000488281L90.8476 3.95008L86.4863 4.58247L89.6417 7.65715L88.8974 11.9995L92.7963 9.94972L96.6968 11.9995L95.9524 7.65715L99.1042 4.58247L94.7429 3.95008L92.7956 -0.000488281Z" fill="#FFD056"/>
</svg>
