<svg width="26" height="16" viewBox="0 0 26 16" fill="none" xmlns="http://www.w3.org/2000/svg">
<path d="M24.7333 8.99951C25.2856 8.99951 25.7333 8.5518 25.7333 7.99951C25.7333 7.44723 25.2856 6.99951 24.7333 6.99951V8.99951ZM0.559495 7.2924C0.16897 7.68293 0.16897 8.31609 0.559495 8.70662L6.92346 15.0706C7.31398 15.4611 7.94714 15.4611 8.33767 15.0706C8.72819 14.6801 8.72819 14.0469 8.33767 13.6564L2.68082 7.99951L8.33767 2.34266C8.72819 1.95213 8.72819 1.31897 8.33767 0.928444C7.94714 0.53792 7.31398 0.53792 6.92346 0.928444L0.559495 7.2924ZM24.7333 6.99951H1.2666V8.99951H24.7333V6.99951Z" fill="#FAFAFA" fill-opacity="0.5"/>
</svg>
