<svg width="295" height="226" viewBox="0 0 295 226" fill="none" xmlns="http://www.w3.org/2000/svg">
<path opacity="0.399158" d="M135.151 222.126C136.67 222.126 137.79 221.062 137.79 219.606C137.79 218.15 136.67 217.086 135.151 217.086C133.632 217.086 132.512 218.157 132.512 219.606C132.512 221.055 133.632 222.126 135.151 222.126ZM135.151 221.328C134.164 221.328 133.429 220.607 133.429 219.606C133.429 218.605 134.164 217.884 135.151 217.884C136.138 217.884 136.873 218.605 136.873 219.606C136.873 220.607 136.138 221.328 135.151 221.328ZM141.33 218.318L140.133 221.09L138.971 218.318H138.061L139.664 222.056H140.567L142.17 218.318H141.33ZM145.461 218.318V220.208C145.461 220.957 145.048 221.335 144.439 221.335C143.886 221.335 143.564 221.013 143.564 220.334V218.318H142.689V220.453C142.689 221.58 143.34 222.105 144.299 222.105C144.782 222.105 145.223 221.923 145.503 221.58V222.056H146.336V218.318H145.461ZM147.482 222.056H148.357V216.862H147.482V222.056ZM150.933 218.276C150.331 218.276 149.75 218.43 149.351 218.738L149.694 219.375C149.974 219.144 150.408 219.004 150.828 219.004C151.451 219.004 151.759 219.305 151.759 219.816V219.872H150.793C149.659 219.872 149.239 220.362 149.239 220.985C149.239 221.636 149.778 222.105 150.632 222.105C151.192 222.105 151.598 221.923 151.808 221.601V222.056H152.634V219.865C152.634 218.787 152.011 218.276 150.933 218.276ZM150.814 221.468C150.366 221.468 150.1 221.265 150.1 220.95C150.1 220.677 150.261 220.453 150.856 220.453H151.759V220.887C151.612 221.272 151.241 221.468 150.814 221.468ZM155.759 221.23C155.626 221.335 155.451 221.384 155.269 221.384C154.933 221.384 154.751 221.188 154.751 220.824V219.046H155.752V218.346H154.751V217.492H153.876V218.346H153.26V219.046H153.876V220.845C153.876 221.671 154.345 222.105 155.164 222.105C155.479 222.105 155.794 222.021 156.004 221.853L155.759 221.23ZM157.165 217.702C157.494 217.702 157.725 217.464 157.725 217.156C157.725 216.869 157.487 216.652 157.165 216.652C156.843 216.652 156.605 216.883 156.605 217.177C156.605 217.471 156.843 217.702 157.165 217.702ZM156.724 222.056H157.599V218.318H156.724V222.056ZM160.427 222.105C161.589 222.105 162.422 221.307 162.422 220.187C162.422 219.067 161.589 218.276 160.427 218.276C159.279 218.276 158.439 219.067 158.439 220.187C158.439 221.307 159.279 222.105 160.427 222.105ZM160.427 221.356C159.797 221.356 159.321 220.901 159.321 220.187C159.321 219.473 159.797 219.018 160.427 219.018C161.064 219.018 161.54 219.473 161.54 220.187C161.54 220.901 161.064 221.356 160.427 221.356ZM165.38 218.276C164.834 218.276 164.379 218.458 164.092 218.801V218.318H163.259V222.056H164.134V220.166C164.134 219.417 164.554 219.039 165.177 219.039C165.737 219.039 166.066 219.361 166.066 220.026V222.056H166.941V219.914C166.941 218.787 166.276 218.276 165.38 218.276Z" fill="#112D35"/>
<path opacity="0.4" d="M261.09 222.126C261.895 222.126 262.581 221.839 263.036 221.307L262.448 220.747C262.091 221.139 261.65 221.328 261.139 221.328C260.124 221.328 259.389 220.614 259.389 219.606C259.389 218.598 260.124 217.884 261.139 217.884C261.65 217.884 262.091 218.073 262.448 218.458L263.036 217.905C262.581 217.373 261.895 217.086 261.097 217.086C259.592 217.086 258.472 218.143 258.472 219.606C258.472 221.069 259.592 222.126 261.09 222.126ZM266.484 218.318L265.301 221.083L264.125 218.318H263.215L264.846 222.07L264.783 222.217C264.615 222.588 264.433 222.735 264.125 222.735C263.887 222.735 263.649 222.637 263.481 222.476L263.131 223.12C263.369 223.337 263.761 223.463 264.132 223.463C264.755 223.463 265.231 223.204 265.574 222.357L267.324 218.318H266.484ZM269.483 222.105C270.211 222.105 270.792 221.79 271.079 221.23L270.407 220.838C270.183 221.195 269.847 221.356 269.476 221.356C268.832 221.356 268.342 220.915 268.342 220.187C268.342 219.466 268.832 219.018 269.476 219.018C269.847 219.018 270.183 219.179 270.407 219.536L271.079 219.144C270.792 218.577 270.211 218.276 269.483 218.276C268.3 218.276 267.46 219.067 267.46 220.187C267.46 221.307 268.3 222.105 269.483 222.105ZM271.801 222.056H272.676V216.862H271.801V222.056ZM277.338 220.208C277.338 219.039 276.54 218.276 275.448 218.276C274.335 218.276 273.516 219.074 273.516 220.187C273.516 221.3 274.328 222.105 275.581 222.105C276.225 222.105 276.75 221.895 277.086 221.496L276.617 220.957C276.351 221.23 276.022 221.363 275.602 221.363C274.951 221.363 274.496 221.013 274.391 220.467H277.324C277.331 220.383 277.338 220.278 277.338 220.208ZM275.448 218.976C276.022 218.976 276.435 219.347 276.505 219.886H274.384C274.468 219.34 274.881 218.976 275.448 218.976ZM281.108 221.293V219.942H283.474V219.193H281.108V217.919H283.775V217.156H280.198V222.056H283.873V221.293H281.108ZM286.924 218.276C286.378 218.276 285.923 218.458 285.636 218.801V218.318H284.803V222.056H285.678V220.166C285.678 219.417 286.098 219.039 286.721 219.039C287.281 219.039 287.61 219.361 287.61 220.026V222.056H288.485V219.914C288.485 218.787 287.82 218.276 286.924 218.276ZM292.415 216.862V218.78C292.121 218.437 291.694 218.276 291.211 218.276C290.126 218.276 289.321 219.025 289.321 220.187C289.321 221.349 290.126 222.105 291.211 222.105C291.722 222.105 292.156 221.93 292.45 221.573V222.056H293.29V216.862H292.415ZM291.316 221.356C290.686 221.356 290.203 220.901 290.203 220.187C290.203 219.473 290.686 219.018 291.316 219.018C291.946 219.018 292.429 219.473 292.429 220.187C292.429 220.901 291.946 221.356 291.316 221.356Z" fill="#112D35"/>
<path opacity="0.4" d="M2.926 222.126C3.731 222.126 4.417 221.839 4.872 221.307L4.284 220.747C3.927 221.139 3.486 221.328 2.975 221.328C1.96 221.328 1.225 220.614 1.225 219.606C1.225 218.598 1.96 217.884 2.975 217.884C3.486 217.884 3.927 218.073 4.284 218.458L4.872 217.905C4.417 217.373 3.731 217.086 2.933 217.086C1.428 217.086 0.308 218.143 0.308 219.606C0.308 221.069 1.428 222.126 2.926 222.126ZM8.31994 218.318L7.13694 221.083L5.96094 218.318H5.05094L6.68194 222.07L6.61894 222.217C6.45094 222.588 6.26894 222.735 5.96094 222.735C5.72294 222.735 5.48494 222.637 5.31694 222.476L4.96694 223.12C5.20494 223.337 5.59694 223.463 5.96794 223.463C6.59094 223.463 7.06694 223.204 7.40994 222.357L9.15994 218.318H8.31994ZM11.3193 222.105C12.0473 222.105 12.6283 221.79 12.9153 221.23L12.2433 220.838C12.0193 221.195 11.6833 221.356 11.3123 221.356C10.6683 221.356 10.1783 220.915 10.1783 220.187C10.1783 219.466 10.6683 219.018 11.3123 219.018C11.6833 219.018 12.0193 219.179 12.2433 219.536L12.9153 219.144C12.6283 218.577 12.0473 218.276 11.3193 218.276C10.1363 218.276 9.29627 219.067 9.29627 220.187C9.29627 221.307 10.1363 222.105 11.3193 222.105ZM13.6375 222.056H14.5125V216.862H13.6375V222.056ZM19.1749 220.208C19.1749 219.039 18.3769 218.276 17.2849 218.276C16.1719 218.276 15.3529 219.074 15.3529 220.187C15.3529 221.3 16.1649 222.105 17.4179 222.105C18.0619 222.105 18.5869 221.895 18.9229 221.496L18.4539 220.957C18.1879 221.23 17.8589 221.363 17.4389 221.363C16.7879 221.363 16.3329 221.013 16.2279 220.467H19.1609C19.1679 220.383 19.1749 220.278 19.1749 220.208ZM17.2849 218.976C17.8589 218.976 18.2719 219.347 18.3419 219.886H16.2209C16.3049 219.34 16.7179 218.976 17.2849 218.976ZM23.553 222.126C24.897 222.126 25.534 221.454 25.534 220.67C25.534 218.871 22.629 219.55 22.629 218.507C22.629 218.136 22.937 217.842 23.693 217.842C24.12 217.842 24.603 217.968 25.044 218.227L25.331 217.52C24.904 217.24 24.288 217.086 23.7 217.086C22.356 217.086 21.726 217.758 21.726 218.549C21.726 220.369 24.638 219.676 24.638 220.733C24.638 221.097 24.316 221.37 23.553 221.37C22.951 221.37 22.328 221.146 21.936 220.831L21.621 221.538C22.027 221.888 22.79 222.126 23.553 222.126ZM28.3543 221.23C28.2213 221.335 28.0463 221.384 27.8643 221.384C27.5283 221.384 27.3463 221.188 27.3463 220.824V219.046H28.3473V218.346H27.3463V217.492H26.4713V218.346H25.8553V219.046H26.4713V220.845C26.4713 221.671 26.9403 222.105 27.7593 222.105C28.0743 222.105 28.3893 222.021 28.5993 221.853L28.3543 221.23ZM30.7471 218.276C30.1451 218.276 29.5641 218.43 29.1651 218.738L29.5081 219.375C29.7881 219.144 30.2221 219.004 30.6421 219.004C31.2651 219.004 31.5731 219.305 31.5731 219.816V219.872H30.6071C29.4731 219.872 29.0531 220.362 29.0531 220.985C29.0531 221.636 29.5921 222.105 30.4461 222.105C31.0061 222.105 31.4121 221.923 31.6221 221.601V222.056H32.4481V219.865C32.4481 218.787 31.8251 218.276 30.7471 218.276ZM30.6281 221.468C30.1801 221.468 29.9141 221.265 29.9141 220.95C29.9141 220.677 30.0751 220.453 30.6701 220.453H31.5731V220.887C31.4261 221.272 31.0551 221.468 30.6281 221.468ZM34.4041 218.864V218.318H33.5711V222.056H34.4461V220.243C34.4461 219.48 34.8661 219.088 35.5311 219.088C35.5941 219.088 35.6571 219.095 35.7341 219.109V218.276C35.1111 218.276 34.6561 218.472 34.4041 218.864ZM38.6151 221.23C38.4821 221.335 38.3071 221.384 38.1251 221.384C37.7891 221.384 37.6071 221.188 37.6071 220.824V219.046H38.6081V218.346H37.6071V217.492H36.7321V218.346H36.1161V219.046H36.7321V220.845C36.7321 221.671 37.2011 222.105 38.0201 222.105C38.3351 222.105 38.6501 222.021 38.8601 221.853L38.6151 221.23Z" fill="#112D35"/>
<path fill-rule="evenodd" clip-rule="evenodd" d="M3.82422 194.481C3.82422 194.481 53.5185 189.83 77.5791 161.113C101.64 132.396 112.06 81.5149 122.933 98.4169C133.805 115.319 138.1 172.137 157.558 179.104C177.015 186.071 187.928 140.63 214.592 150.354C241.256 160.079 262.749 192.125 287.896 193.989C287.614 193.942 3.82422 194.481 3.82422 194.481Z" fill="url(#paint0_linear_0_1329)"/>
<g filter="url(#filter0_b_0_1329)">
<path fill-rule="evenodd" clip-rule="evenodd" d="M3.82422 194.364C21.0726 181.04 30.7411 176.216 51.7039 181.04C72.6668 185.864 98.3952 185.457 111.271 154.662C124.146 123.868 122.622 75.3889 131.996 75.3889C141.37 75.3889 139.744 171.038 188.84 181.04C237.936 191.042 279.704 194.482 279.704 194.482C279.704 194.482 8.81973 193.801 3.82422 194.364Z" fill="url(#paint1_linear_0_1329)"/>
</g>
<g style="mix-blend-mode:hard-light">
<path fill-rule="evenodd" clip-rule="evenodd" d="M79.7593 8.19446V194.482H147.5V8.19446H79.7593Z" fill="#AEAAE8" fill-opacity="0.5"/>
</g>
<g filter="url(#filter1_b_0_1329)">
<path fill-rule="evenodd" clip-rule="evenodd" d="M1.63916 194.303C1.63916 194.303 93.9247 196.754 135.659 165.624C177.394 134.494 183.359 82.4907 211.743 82.4907C240.127 82.4907 254.931 165.864 289.537 194.053C289.537 194.17 1.63916 194.303 1.63916 194.303Z" fill="url(#paint2_linear_0_1329)"/>
</g>
<g style="mix-blend-mode:hard-light">
<path fill-rule="evenodd" clip-rule="evenodd" d="M172.629 8.19446V194.482H240.37V8.19446H172.629Z" fill="#AEAAE8" fill-opacity="0.5"/>
</g>
<path d="M147.773 194.066V19.1204" stroke="url(#paint3_linear_0_1329)" stroke-width="0.546296" stroke-linecap="square" stroke-dasharray="0.55 2.73"/>
<path d="M292.269 194.208L2.7315 194.208" stroke="#112D35" stroke-width="0.546296" stroke-linecap="square"/>
<path opacity="0.5" d="M185.95 49.4259L185.943 44.5259H185.369L183.353 47.9699L181.309 44.5259H180.735V49.4259H181.407V45.8769L183.178 48.8309H183.5L185.271 45.8559L185.278 49.4259H185.95ZM190.676 47.5919C190.676 46.4509 189.913 45.6809 188.842 45.6809C187.771 45.6809 186.98 46.4719 186.98 47.5709C186.98 48.6769 187.778 49.4679 188.975 49.4679C189.591 49.4679 190.102 49.2579 190.438 48.8659L190.067 48.4319C189.794 48.7329 189.43 48.8799 188.996 48.8799C188.261 48.8799 187.736 48.4459 187.652 47.7949H190.662C190.669 47.7319 190.676 47.6479 190.676 47.5919ZM188.842 46.2479C189.493 46.2479 189.962 46.6889 190.032 47.3119H187.652C187.722 46.6819 188.198 46.2479 188.842 46.2479ZM192.857 45.6809C192.262 45.6809 191.709 45.8489 191.324 46.1569L191.604 46.6609C191.891 46.4159 192.339 46.2619 192.78 46.2619C193.445 46.2619 193.774 46.5909 193.774 47.1579V47.2909H192.71C191.604 47.2909 191.219 47.7809 191.219 48.3759C191.219 49.0199 191.751 49.4679 192.591 49.4679C193.172 49.4679 193.585 49.2719 193.809 48.9359V49.4259H194.446V47.1859C194.446 46.1709 193.872 45.6809 192.857 45.6809ZM192.703 48.9499C192.192 48.9499 191.884 48.7189 191.884 48.3479C191.884 48.0329 192.073 47.7739 192.738 47.7739H193.774V48.2919C193.606 48.7189 193.207 48.9499 192.703 48.9499ZM196.754 49.4679C197.741 49.4679 198.357 49.0409 198.357 48.3689C198.357 46.9269 196.005 47.6409 196.005 46.7659C196.005 46.4719 196.292 46.2549 196.88 46.2549C197.244 46.2549 197.615 46.3319 197.951 46.5489L198.238 46.0169C197.916 45.8069 197.37 45.6809 196.887 45.6809C195.935 45.6809 195.34 46.1289 195.34 46.7939C195.34 48.2709 197.685 47.5499 197.685 48.3829C197.685 48.6979 197.426 48.8869 196.803 48.8869C196.32 48.8869 195.816 48.7259 195.501 48.5019L195.221 49.0339C195.529 49.2789 196.138 49.4679 196.754 49.4679ZM201.983 45.7159V47.6339C201.983 48.4319 201.535 48.8659 200.835 48.8659C200.198 48.8659 199.834 48.5019 199.834 47.7739V45.7159H199.162V47.8509C199.162 48.9429 199.799 49.4679 200.758 49.4679C201.283 49.4679 201.745 49.2509 202.018 48.8659V49.4259H202.655V45.7159H201.983ZM204.578 46.3389V45.7159H203.934V49.4259H204.606V47.5779C204.606 46.7659 205.054 46.3249 205.775 46.3249C205.824 46.3249 205.873 46.3249 205.929 46.3319V45.6809C205.278 45.6809 204.816 45.9049 204.578 46.3389ZM210.076 47.5919C210.076 46.4509 209.313 45.6809 208.242 45.6809C207.171 45.6809 206.38 46.4719 206.38 47.5709C206.38 48.6769 207.178 49.4679 208.375 49.4679C208.991 49.4679 209.502 49.2579 209.838 48.8659L209.467 48.4319C209.194 48.7329 208.83 48.8799 208.396 48.8799C207.661 48.8799 207.136 48.4459 207.052 47.7949H210.062C210.069 47.7319 210.076 47.6479 210.076 47.5919ZM208.242 46.2479C208.893 46.2479 209.362 46.6889 209.432 47.3119H207.052C207.122 46.6819 207.598 46.2479 208.242 46.2479ZM212.073 49.4679C213.06 49.4679 213.676 49.0409 213.676 48.3689C213.676 46.9269 211.324 47.6409 211.324 46.7659C211.324 46.4719 211.611 46.2549 212.199 46.2549C212.563 46.2549 212.934 46.3319 213.27 46.5489L213.557 46.0169C213.235 45.8069 212.689 45.6809 212.206 45.6809C211.254 45.6809 210.659 46.1289 210.659 46.7939C210.659 48.2709 213.004 47.5499 213.004 48.3829C213.004 48.6979 212.745 48.8869 212.122 48.8869C211.639 48.8869 211.135 48.7259 210.82 48.5019L210.54 49.0339C210.848 49.2789 211.457 49.4679 212.073 49.4679ZM182.646 53.5259H180.735V58.4259H181.435V56.9419H182.646C183.92 56.9419 184.69 56.2979 184.69 55.2339C184.69 54.1699 183.92 53.5259 182.646 53.5259ZM182.625 56.3329H181.435V54.1349H182.625C183.521 54.1349 183.99 54.5339 183.99 55.2339C183.99 55.9339 183.521 56.3329 182.625 56.3329ZM186.203 55.3389V54.7159H185.559V58.4259H186.231V56.5779C186.231 55.7659 186.679 55.3249 187.4 55.3249C187.449 55.3249 187.498 55.3249 187.554 55.3319V54.6809C186.903 54.6809 186.441 54.9049 186.203 55.3389ZM189.937 58.4679C191.05 58.4679 191.862 57.6769 191.862 56.5709C191.862 55.4649 191.05 54.6809 189.937 54.6809C188.824 54.6809 188.005 55.4649 188.005 56.5709C188.005 57.6769 188.824 58.4679 189.937 58.4679ZM189.937 57.8799C189.223 57.8799 188.684 57.3619 188.684 56.5709C188.684 55.7799 189.223 55.2689 189.937 55.2689C190.651 55.2689 191.183 55.7799 191.183 56.5709C191.183 57.3619 190.651 57.8799 189.937 57.8799ZM195.703 54.7159V55.2899C195.388 54.8839 194.884 54.6809 194.331 54.6809C193.26 54.6809 192.448 55.4019 192.448 56.4729C192.448 57.5439 193.26 58.2719 194.331 58.2719C194.863 58.2719 195.346 58.0829 195.668 57.6979V57.9919C195.668 58.8319 195.269 59.2379 194.394 59.2379C193.848 59.2379 193.309 59.0489 192.966 58.7549L192.644 59.2729C193.05 59.6369 193.736 59.8259 194.415 59.8259C195.675 59.8259 196.34 59.2309 196.34 57.9219V54.7159H195.703ZM194.408 57.6839C193.659 57.6839 193.127 57.1869 193.127 56.4729C193.127 55.7519 193.659 55.2689 194.408 55.2689C195.15 55.2689 195.682 55.7519 195.682 56.4729C195.682 57.1869 195.15 57.6839 194.408 57.6839ZM200.977 56.5919C200.977 55.4509 200.214 54.6809 199.143 54.6809C198.072 54.6809 197.281 55.4719 197.281 56.5709C197.281 57.6769 198.079 58.4679 199.276 58.4679C199.892 58.4679 200.403 58.2579 200.739 57.8659L200.368 57.4319C200.095 57.7329 199.731 57.8799 199.297 57.8799C198.562 57.8799 198.037 57.4459 197.953 56.7949H200.963C200.97 56.7319 200.977 56.6479 200.977 56.5919ZM199.143 55.2479C199.794 55.2479 200.263 55.6889 200.333 56.3119H197.953C198.023 55.6819 198.499 55.2479 199.143 55.2479ZM202.974 58.4679C203.961 58.4679 204.577 58.0409 204.577 57.3689C204.577 55.9269 202.225 56.6409 202.225 55.7659C202.225 55.4719 202.512 55.2549 203.1 55.2549C203.464 55.2549 203.835 55.3319 204.171 55.5489L204.458 55.0169C204.136 54.8069 203.59 54.6809 203.107 54.6809C202.155 54.6809 201.56 55.1289 201.56 55.7939C201.56 57.2709 203.905 56.5499 203.905 57.3829C203.905 57.6979 203.646 57.8869 203.023 57.8869C202.54 57.8869 202.036 57.7259 201.721 57.5019L201.441 58.0339C201.749 58.2789 202.358 58.4679 202.974 58.4679ZM207.293 57.7259C207.153 57.8379 206.964 57.9009 206.768 57.9009C206.397 57.9009 206.187 57.6769 206.187 57.2779V55.2689H207.251V54.7159H206.187V53.9039H205.515V54.7159H204.885V55.2689H205.515V57.3059C205.515 58.0549 205.942 58.4679 206.691 58.4679C206.992 58.4679 207.3 58.3839 207.503 58.2089L207.293 57.7259ZM211.546 56.5919C211.546 55.4509 210.783 54.6809 209.712 54.6809C208.641 54.6809 207.85 55.4719 207.85 56.5709C207.85 57.6769 208.648 58.4679 209.845 58.4679C210.461 58.4679 210.972 58.2579 211.308 57.8659L210.937 57.4319C210.664 57.7329 210.3 57.8799 209.866 57.8799C209.131 57.8799 208.606 57.4459 208.522 56.7949H211.532C211.539 56.7319 211.546 56.6479 211.546 56.5919ZM209.712 55.2479C210.363 55.2479 210.832 55.6889 210.902 56.3119H208.522C208.592 55.6819 209.068 55.2479 209.712 55.2479ZM213.123 55.3389V54.7159H212.479V58.4259H213.151V56.5779C213.151 55.7659 213.599 55.3249 214.32 55.3249C214.369 55.3249 214.418 55.3249 214.474 55.3319V54.6809C213.823 54.6809 213.361 54.9049 213.123 55.3389ZM216.857 58.4679C217.97 58.4679 218.782 57.6769 218.782 56.5709C218.782 55.4649 217.97 54.6809 216.857 54.6809C215.744 54.6809 214.925 55.4649 214.925 56.5709C214.925 57.6769 215.744 58.4679 216.857 58.4679ZM216.857 57.8799C216.143 57.8799 215.604 57.3619 215.604 56.5709C215.604 55.7799 216.143 55.2689 216.857 55.2689C217.571 55.2689 218.103 55.7799 218.103 56.5709C218.103 57.3619 217.571 57.8799 216.857 57.8799ZM221.692 54.6809C221.104 54.6809 220.628 54.8979 220.355 55.2759V54.7159H219.711V58.4259H220.383V56.5149C220.383 55.7099 220.845 55.2829 221.559 55.2829C222.196 55.2829 222.56 55.6399 222.56 56.3679V58.4259H223.232V56.2909C223.232 55.1989 222.595 54.6809 221.692 54.6809ZM227.849 56.5919C227.849 55.4509 227.086 54.6809 226.015 54.6809C224.944 54.6809 224.153 55.4719 224.153 56.5709C224.153 57.6769 224.951 58.4679 226.148 58.4679C226.764 58.4679 227.275 58.2579 227.611 57.8659L227.24 57.4319C226.967 57.7329 226.603 57.8799 226.169 57.8799C225.434 57.8799 224.909 57.4459 224.825 56.7949H227.835C227.842 56.7319 227.849 56.6479 227.849 56.5919ZM226.015 55.2479C226.666 55.2479 227.135 55.6889 227.205 56.3119H224.825C224.895 55.6819 225.371 55.2479 226.015 55.2479Z" fill="#112D35"/>
<path d="M88.888 24H89.928V19.28H91.784V18.4H87.032V19.28H88.888V24ZM93.3189 20.352V19.728H92.3669V24H93.3669V21.928C93.3669 21.056 93.8469 20.608 94.6069 20.608C94.6789 20.608 94.7509 20.616 94.8389 20.632V19.68C94.1269 19.68 93.6069 19.904 93.3189 20.352ZM97.2958 19.68C96.6078 19.68 95.9438 19.856 95.4878 20.208L95.8798 20.936C96.1998 20.672 96.6958 20.512 97.1758 20.512C97.8878 20.512 98.2398 20.856 98.2398 21.44V21.504H97.1358C95.8398 21.504 95.3598 22.064 95.3598 22.776C95.3598 23.52 95.9758 24.056 96.9518 24.056C97.5918 24.056 98.0558 23.848 98.2958 23.48V24H99.2398V21.496C99.2398 20.264 98.5278 19.68 97.2958 19.68ZM97.1598 23.328C96.6478 23.328 96.3438 23.096 96.3438 22.736C96.3438 22.424 96.5278 22.168 97.2078 22.168H98.2398V22.664C98.0718 23.104 97.6478 23.328 97.1598 23.328ZM102.522 24.056C103.354 24.056 104.018 23.696 104.346 23.056L103.578 22.608C103.322 23.016 102.938 23.2 102.514 23.2C101.778 23.2 101.218 22.696 101.218 21.864C101.218 21.04 101.778 20.528 102.514 20.528C102.938 20.528 103.322 20.712 103.578 21.12L104.346 20.672C104.018 20.024 103.354 19.68 102.522 19.68C101.17 19.68 100.21 20.584 100.21 21.864C100.21 23.144 101.17 24.056 102.522 24.056ZM108.396 24H109.612L107.66 21.52L109.444 19.728H108.244L106.172 21.648V18.064H105.172V24H106.172V22.872L106.916 22.168L108.396 24ZM116.653 19.272V18.4H112.565V24H113.605V21.856H116.309V20.976H113.605V19.272H116.653ZM121.461 21.888C121.461 20.552 120.549 19.68 119.301 19.68C118.029 19.68 117.093 20.592 117.093 21.864C117.093 23.136 118.021 24.056 119.453 24.056C120.189 24.056 120.789 23.816 121.173 23.36L120.637 22.744C120.333 23.056 119.957 23.208 119.477 23.208C118.733 23.208 118.213 22.808 118.093 22.184H121.445C121.453 22.088 121.461 21.968 121.461 21.888ZM119.301 20.48C119.957 20.48 120.429 20.904 120.509 21.52H118.085C118.181 20.896 118.653 20.48 119.301 20.48ZM123.374 20.352V19.728H122.422V24H123.422V21.928C123.422 21.056 123.902 20.608 124.662 20.608C124.734 20.608 124.806 20.616 124.894 20.632V19.68C124.182 19.68 123.662 19.904 123.374 20.352ZM128.186 23.056C128.034 23.176 127.834 23.232 127.626 23.232C127.242 23.232 127.034 23.008 127.034 22.592V20.56H128.178V19.76H127.034V18.784H126.034V19.76H125.33V20.56H126.034V22.616C126.034 23.56 126.57 24.056 127.506 24.056C127.866 24.056 128.226 23.96 128.466 23.768L128.186 23.056ZM129.793 19.024C130.169 19.024 130.433 18.752 130.433 18.4C130.433 18.072 130.161 17.824 129.793 17.824C129.425 17.824 129.153 18.088 129.153 18.424C129.153 18.76 129.425 19.024 129.793 19.024ZM129.289 24H130.289V19.728H129.289V24ZM131.601 24H132.601V18.064H131.601V24ZM137.93 21.888C137.93 20.552 137.018 19.68 135.77 19.68C134.498 19.68 133.562 20.592 133.562 21.864C133.562 23.136 134.49 24.056 135.922 24.056C136.658 24.056 137.258 23.816 137.642 23.36L137.106 22.744C136.802 23.056 136.426 23.208 135.946 23.208C135.202 23.208 134.682 22.808 134.562 22.184H137.914C137.922 22.088 137.93 21.968 137.93 21.888ZM135.77 20.48C136.426 20.48 136.898 20.904 136.978 21.52H134.554C134.65 20.896 135.122 20.48 135.77 20.48ZM87.752 34H90.2C92.016 34 93.256 32.88 93.256 31.2C93.256 29.52 92.016 28.4 90.2 28.4H87.752V34ZM88.792 33.12V29.28H90.152C91.4 29.28 92.208 30.04 92.208 31.2C92.208 32.36 91.4 33.12 90.152 33.12H88.792ZM95.8974 29.68C95.2094 29.68 94.5454 29.856 94.0894 30.208L94.4814 30.936C94.8014 30.672 95.2974 30.512 95.7774 30.512C96.4894 30.512 96.8414 30.856 96.8414 31.44V31.504H95.7374C94.4414 31.504 93.9614 32.064 93.9614 32.776C93.9614 33.52 94.5774 34.056 95.5534 34.056C96.1934 34.056 96.6574 33.848 96.8974 33.48V34H97.8414V31.496C97.8414 30.264 97.1294 29.68 95.8974 29.68ZM95.7614 33.328C95.2494 33.328 94.9454 33.096 94.9454 32.736C94.9454 32.424 95.1294 32.168 95.8094 32.168H96.8414V32.664C96.6734 33.104 96.2494 33.328 95.7614 33.328ZM102.087 29.728L100.735 32.888L99.3906 29.728H98.3506L100.215 34.016L100.143 34.184C99.9506 34.608 99.7426 34.776 99.3906 34.776C99.1186 34.776 98.8466 34.664 98.6546 34.48L98.2546 35.216C98.5266 35.464 98.9746 35.608 99.3986 35.608C100.111 35.608 100.655 35.312 101.047 34.344L103.047 29.728H102.087ZM104.937 34.056C106.137 34.056 106.873 33.536 106.873 32.736C106.873 31.064 104.233 31.832 104.233 30.968C104.233 30.688 104.521 30.488 105.129 30.488C105.537 30.488 105.945 30.568 106.353 30.808L106.737 30.048C106.353 29.816 105.705 29.68 105.137 29.68C103.985 29.68 103.257 30.208 103.257 31.016C103.257 32.72 105.897 31.952 105.897 32.768C105.897 33.064 105.633 33.24 105.001 33.24C104.465 33.24 103.889 33.064 103.513 32.816L103.129 33.576C103.513 33.848 104.225 34.056 104.937 34.056Z" fill="#112D35"/>
<path opacity="0.5" d="M92.95 49.4259L92.943 44.5259H92.369L90.353 47.9699L88.309 44.5259H87.735V49.4259H88.407V45.8769L90.178 48.8309H90.5L92.271 45.8559L92.278 49.4259H92.95ZM97.6755 47.5919C97.6755 46.4509 96.9125 45.6809 95.8415 45.6809C94.7705 45.6809 93.9795 46.4719 93.9795 47.5709C93.9795 48.6769 94.7775 49.4679 95.9745 49.4679C96.5905 49.4679 97.1015 49.2579 97.4375 48.8659L97.0665 48.4319C96.7935 48.7329 96.4295 48.8799 95.9955 48.8799C95.2605 48.8799 94.7355 48.4459 94.6515 47.7949H97.6615C97.6685 47.7319 97.6755 47.6479 97.6755 47.5919ZM95.8415 46.2479C96.4925 46.2479 96.9615 46.6889 97.0315 47.3119H94.6515C94.7215 46.6819 95.1975 46.2479 95.8415 46.2479ZM99.8571 45.6809C99.2621 45.6809 98.7091 45.8489 98.3241 46.1569L98.6041 46.6609C98.8911 46.4159 99.3391 46.2619 99.7801 46.2619C100.445 46.2619 100.774 46.5909 100.774 47.1579V47.2909H99.7101C98.6041 47.2909 98.2191 47.7809 98.2191 48.3759C98.2191 49.0199 98.7511 49.4679 99.5911 49.4679C100.172 49.4679 100.585 49.2719 100.809 48.9359V49.4259H101.446V47.1859C101.446 46.1709 100.872 45.6809 99.8571 45.6809ZM99.7031 48.9499C99.1921 48.9499 98.8841 48.7189 98.8841 48.3479C98.8841 48.0329 99.0731 47.7739 99.7381 47.7739H100.774V48.2919C100.606 48.7189 100.207 48.9499 99.7031 48.9499ZM103.754 49.4679C104.741 49.4679 105.357 49.0409 105.357 48.3689C105.357 46.9269 103.005 47.6409 103.005 46.7659C103.005 46.4719 103.292 46.2549 103.88 46.2549C104.244 46.2549 104.615 46.3319 104.951 46.5489L105.238 46.0169C104.916 45.8069 104.37 45.6809 103.887 45.6809C102.935 45.6809 102.34 46.1289 102.34 46.7939C102.34 48.2709 104.685 47.5499 104.685 48.3829C104.685 48.6979 104.426 48.8869 103.803 48.8869C103.32 48.8869 102.816 48.7259 102.501 48.5019L102.221 49.0339C102.529 49.2789 103.138 49.4679 103.754 49.4679ZM108.983 45.7159V47.6339C108.983 48.4319 108.535 48.8659 107.835 48.8659C107.198 48.8659 106.834 48.5019 106.834 47.7739V45.7159H106.162V47.8509C106.162 48.9429 106.799 49.4679 107.758 49.4679C108.283 49.4679 108.745 49.2509 109.018 48.8659V49.4259H109.655V45.7159H108.983ZM111.578 46.3389V45.7159H110.934V49.4259H111.606V47.5779C111.606 46.7659 112.054 46.3249 112.775 46.3249C112.824 46.3249 112.873 46.3249 112.929 46.3319V45.6809C112.278 45.6809 111.816 45.9049 111.578 46.3389ZM117.076 47.5919C117.076 46.4509 116.313 45.6809 115.242 45.6809C114.171 45.6809 113.38 46.4719 113.38 47.5709C113.38 48.6769 114.178 49.4679 115.375 49.4679C115.991 49.4679 116.502 49.2579 116.838 48.8659L116.467 48.4319C116.194 48.7329 115.83 48.8799 115.396 48.8799C114.661 48.8799 114.136 48.4459 114.052 47.7949H117.062C117.069 47.7319 117.076 47.6479 117.076 47.5919ZM115.242 46.2479C115.893 46.2479 116.362 46.6889 116.432 47.3119H114.052C114.122 46.6819 114.598 46.2479 115.242 46.2479ZM119.073 49.4679C120.06 49.4679 120.676 49.0409 120.676 48.3689C120.676 46.9269 118.324 47.6409 118.324 46.7659C118.324 46.4719 118.611 46.2549 119.199 46.2549C119.563 46.2549 119.934 46.3319 120.27 46.5489L120.557 46.0169C120.235 45.8069 119.689 45.6809 119.206 45.6809C118.254 45.6809 117.659 46.1289 117.659 46.7939C117.659 48.2709 120.004 47.5499 120.004 48.3829C120.004 48.6979 119.745 48.8869 119.122 48.8869C118.639 48.8869 118.135 48.7259 117.82 48.5019L117.54 49.0339C117.848 49.2789 118.457 49.4679 119.073 49.4679ZM123.494 49.4259H126.847V48.8169H124.194V44.5259H123.494V49.4259ZM131.164 44.5259V46.6329H128.35V44.5259H127.65V49.4259H128.35V47.2419H131.164V49.4259H131.864V44.5259H131.164ZM90.605 55.7029H89.331V54.4429H88.743V55.7029H87.469V56.2559H88.743V57.5089H89.331V56.2559H90.605V55.7029ZM94.3891 57.8169V56.2349H96.8461V55.6399H94.3891V54.1349H97.1471V53.5259H93.6891V58.4259H97.2451V57.8169H94.3891ZM99.2967 58.4679C100.284 58.4679 100.9 58.0409 100.9 57.3689C100.9 55.9269 98.5477 56.6409 98.5477 55.7659C98.5477 55.4719 98.8347 55.2549 99.4227 55.2549C99.7867 55.2549 100.158 55.3319 100.494 55.5489L100.781 55.0169C100.459 54.8069 99.9127 54.6809 99.4297 54.6809C98.4777 54.6809 97.8827 55.1289 97.8827 55.7939C97.8827 57.2709 100.228 56.5499 100.228 57.3829C100.228 57.6979 99.9687 57.8869 99.3457 57.8869C98.8627 57.8869 98.3587 57.7259 98.0437 57.5019L97.7637 58.0339C98.0717 58.2789 98.6807 58.4679 99.2967 58.4679ZM103.616 57.7259C103.476 57.8379 103.287 57.9009 103.091 57.9009C102.72 57.9009 102.51 57.6769 102.51 57.2779V55.2689H103.574V54.7159H102.51V53.9039H101.838V54.7159H101.208V55.2689H101.838V57.3059C101.838 58.0549 102.265 58.4679 103.014 58.4679C103.315 58.4679 103.623 58.3839 103.826 58.2089L103.616 57.7259ZM105.282 55.3389V54.7159H104.638V58.4259H105.31V56.5779C105.31 55.7659 105.758 55.3249 106.479 55.3249C106.528 55.3249 106.577 55.3249 106.633 55.3319V54.6809C105.982 54.6809 105.52 54.9049 105.282 55.3389ZM109.016 58.4679C110.129 58.4679 110.941 57.6769 110.941 56.5709C110.941 55.4649 110.129 54.6809 109.016 54.6809C107.903 54.6809 107.084 55.4649 107.084 56.5709C107.084 57.6769 107.903 58.4679 109.016 58.4679ZM109.016 57.8799C108.302 57.8799 107.763 57.3619 107.763 56.5709C107.763 55.7799 108.302 55.2689 109.016 55.2689C109.73 55.2689 110.262 55.7799 110.262 56.5709C110.262 57.3619 109.73 57.8799 109.016 57.8799ZM114.782 54.7159V55.2899C114.467 54.8839 113.963 54.6809 113.41 54.6809C112.339 54.6809 111.527 55.4019 111.527 56.4729C111.527 57.5439 112.339 58.2719 113.41 58.2719C113.942 58.2719 114.425 58.0829 114.747 57.6979V57.9919C114.747 58.8319 114.348 59.2379 113.473 59.2379C112.927 59.2379 112.388 59.0489 112.045 58.7549L111.723 59.2729C112.129 59.6369 112.815 59.8259 113.494 59.8259C114.754 59.8259 115.419 59.2309 115.419 57.9219V54.7159H114.782ZM113.487 57.6839C112.738 57.6839 112.206 57.1869 112.206 56.4729C112.206 55.7519 112.738 55.2689 113.487 55.2689C114.229 55.2689 114.761 55.7519 114.761 56.4729C114.761 57.1869 114.229 57.6839 113.487 57.6839ZM120.056 56.5919C120.056 55.4509 119.293 54.6809 118.222 54.6809C117.151 54.6809 116.36 55.4719 116.36 56.5709C116.36 57.6769 117.158 58.4679 118.355 58.4679C118.971 58.4679 119.482 58.2579 119.818 57.8659L119.447 57.4319C119.174 57.7329 118.81 57.8799 118.376 57.8799C117.641 57.8799 117.116 57.4459 117.032 56.7949H120.042C120.049 56.7319 120.056 56.6479 120.056 56.5919ZM118.222 55.2479C118.873 55.2479 119.342 55.6889 119.412 56.3119H117.032C117.102 55.6819 117.578 55.2479 118.222 55.2479ZM122.971 54.6809C122.383 54.6809 121.907 54.8979 121.634 55.2759V54.7159H120.99V58.4259H121.662V56.5149C121.662 55.7099 122.124 55.2829 122.838 55.2829C123.475 55.2829 123.839 55.6399 123.839 56.3679V58.4259H124.511V56.2909C124.511 55.1989 123.874 54.6809 122.971 54.6809Z" fill="#112D35"/>
<path d="M183.344 24.08C184.264 24.08 185.048 23.752 185.568 23.144L184.896 22.504C184.488 22.952 183.984 23.168 183.4 23.168C182.24 23.168 181.4 22.352 181.4 21.2C181.4 20.048 182.24 19.232 183.4 19.232C183.984 19.232 184.488 19.448 184.896 19.888L185.568 19.256C185.048 18.648 184.264 18.32 183.352 18.32C181.632 18.32 180.352 19.528 180.352 21.2C180.352 22.872 181.632 24.08 183.344 24.08ZM188.232 24.056C189.56 24.056 190.512 23.144 190.512 21.864C190.512 20.584 189.56 19.68 188.232 19.68C186.92 19.68 185.96 20.584 185.96 21.864C185.96 23.144 186.92 24.056 188.232 24.056ZM188.232 23.2C187.512 23.2 186.968 22.68 186.968 21.864C186.968 21.048 187.512 20.528 188.232 20.528C188.96 20.528 189.504 21.048 189.504 21.864C189.504 22.68 188.96 23.2 188.232 23.2ZM193.893 19.68C193.269 19.68 192.749 19.888 192.421 20.28V19.728H191.469V24H192.469V21.84C192.469 20.984 192.949 20.552 193.661 20.552C194.301 20.552 194.677 20.92 194.677 21.68V24H195.677V21.552C195.677 20.264 194.917 19.68 193.893 19.68ZM198.681 18.816C198.889 18.816 199.081 18.888 199.233 18.992L199.513 18.24C199.289 18.08 198.953 18.008 198.609 18.008C197.617 18.008 197.081 18.592 197.081 19.488V19.76H196.377V20.56H197.081V24H198.081V20.56H199.225V19.76H198.049V19.504C198.049 19.048 198.265 18.816 198.681 18.816ZM201.043 19.024C201.419 19.024 201.683 18.752 201.683 18.4C201.683 18.072 201.411 17.824 201.043 17.824C200.675 17.824 200.403 18.088 200.403 18.424C200.403 18.76 200.675 19.024 201.043 19.024ZM200.539 24H201.539V19.728L200.539 19.728V24ZM203.803 20.352V19.728H202.851V24H203.851V21.928C203.851 21.056 204.331 20.608 205.091 20.608C205.163 20.608 205.235 20.616 205.323 20.632V19.68C204.611 19.68 204.091 19.904 203.803 20.352ZM211.564 19.68C210.884 19.68 210.308 19.952 209.964 20.392C209.668 19.912 209.148 19.68 208.524 19.68C207.94 19.68 207.444 19.888 207.124 20.272V19.728H206.172V24H207.172V21.832C207.172 20.984 207.62 20.552 208.284 20.552C208.892 20.552 209.244 20.92 209.244 21.68V24H210.244V21.832C210.244 20.984 210.7 20.552 211.356 20.552C211.964 20.552 212.316 20.92 212.316 21.68V24H213.316V21.552C213.316 20.264 212.596 19.68 211.564 19.68ZM183.368 34.08C185.104 34.08 186.384 32.864 186.384 31.2C186.384 29.536 185.104 28.32 183.368 28.32C181.632 28.32 180.352 29.544 180.352 31.2C180.352 32.856 181.632 34.08 183.368 34.08ZM183.368 33.168C182.24 33.168 181.4 32.344 181.4 31.2C181.4 30.056 182.24 29.232 183.368 29.232C184.496 29.232 185.336 30.056 185.336 31.2C185.336 32.344 184.496 33.168 183.368 33.168ZM190.43 29.728L189.062 32.896L187.734 29.728H186.694L188.526 34H189.558L191.39 29.728L190.43 29.728ZM195.151 29.728V31.888C195.151 32.744 194.679 33.176 193.983 33.176C193.351 33.176 192.983 32.808 192.983 32.032V29.728H191.983V32.168C191.983 33.456 192.727 34.056 193.823 34.056C194.375 34.056 194.879 33.848 195.199 33.456V34H196.151V29.728H195.151ZM197.461 34H198.461V28.064L197.461 28.064V34ZM201.405 29.68C200.717 29.68 200.053 29.856 199.597 30.208L199.989 30.936C200.309 30.672 200.805 30.512 201.285 30.512C201.997 30.512 202.349 30.856 202.349 31.44V31.504H201.245C199.949 31.504 199.469 32.064 199.469 32.776C199.469 33.52 200.085 34.056 201.061 34.056C201.701 34.056 202.165 33.848 202.405 33.48V34H203.349V31.496C203.349 30.264 202.637 29.68 201.405 29.68ZM201.269 33.328C200.757 33.328 200.453 33.096 200.453 32.736C200.453 32.424 200.637 32.168 201.317 32.168L202.349 32.168V32.664C202.181 33.104 201.757 33.328 201.269 33.328ZM206.921 33.056C206.769 33.176 206.569 33.232 206.361 33.232C205.977 33.232 205.769 33.008 205.769 32.592V30.56H206.913V29.76H205.769V28.784H204.769V29.76H204.065V30.56H204.769V32.616C204.769 33.56 205.305 34.056 206.241 34.056C206.601 34.056 206.961 33.96 207.201 33.768L206.921 33.056ZM208.527 29.024C208.903 29.024 209.167 28.752 209.167 28.4C209.167 28.072 208.895 27.824 208.527 27.824C208.159 27.824 207.887 28.088 207.887 28.424C207.887 28.76 208.159 29.024 208.527 29.024ZM208.023 34H209.023V29.728H208.023V34ZM212.256 34.056C213.584 34.056 214.536 33.144 214.536 31.864C214.536 30.584 213.584 29.68 212.256 29.68C210.944 29.68 209.984 30.584 209.984 31.864C209.984 33.144 210.944 34.056 212.256 34.056ZM212.256 33.2C211.536 33.2 210.992 32.68 210.992 31.864C210.992 31.048 211.536 30.528 212.256 30.528C212.984 30.528 213.528 31.048 213.528 31.864C213.528 32.68 212.984 33.2 212.256 33.2ZM217.916 29.68C217.292 29.68 216.772 29.888 216.444 30.28V29.728H215.492V34L216.492 34V31.84C216.492 30.984 216.972 30.552 217.684 30.552C218.324 30.552 218.7 30.92 218.7 31.68V34H219.7V31.552C219.7 30.264 218.94 29.68 217.916 29.68Z" fill="#112D35"/>
<path opacity="0.4" d="M175.472 222.056H177.614C179.203 222.056 180.288 221.076 180.288 219.606C180.288 218.136 179.203 217.156 177.614 217.156H175.472V222.056ZM176.382 221.286V217.926H177.572C178.664 217.926 179.371 218.591 179.371 219.606C179.371 220.621 178.664 221.286 177.572 221.286H176.382ZM182.6 218.276C181.998 218.276 181.417 218.43 181.018 218.738L181.361 219.375C181.641 219.144 182.075 219.004 182.495 219.004C183.118 219.004 183.426 219.305 183.426 219.816V219.872H182.46C181.326 219.872 180.906 220.362 180.906 220.985C180.906 221.636 181.445 222.105 182.299 222.105C182.859 222.105 183.265 221.923 183.475 221.601V222.056H184.301V219.865C184.301 218.787 183.678 218.276 182.6 218.276ZM182.481 221.468C182.033 221.468 181.767 221.265 181.767 220.95C181.767 220.677 181.928 220.453 182.523 220.453H183.426V220.887C183.279 221.272 182.908 221.468 182.481 221.468ZM188.015 218.318L186.832 221.083L185.656 218.318H184.746L186.377 222.07L186.314 222.217C186.146 222.588 185.964 222.735 185.656 222.735C185.418 222.735 185.18 222.637 185.012 222.476L184.662 223.12C184.9 223.337 185.292 223.463 185.663 223.463C186.286 223.463 186.762 223.204 187.105 222.357L188.855 218.318H188.015ZM190.509 222.105C191.559 222.105 192.203 221.65 192.203 220.95C192.203 219.487 189.893 220.159 189.893 219.403C189.893 219.158 190.145 218.983 190.677 218.983C191.034 218.983 191.391 219.053 191.748 219.263L192.084 218.598C191.748 218.395 191.181 218.276 190.684 218.276C189.676 218.276 189.039 218.738 189.039 219.445C189.039 220.936 191.349 220.264 191.349 220.978C191.349 221.237 191.118 221.391 190.565 221.391C190.096 221.391 189.592 221.237 189.263 221.02L188.927 221.685C189.263 221.923 189.886 222.105 190.509 222.105ZM196.711 219.179L197.901 217.765V217.156H194.562V217.919H196.788L195.675 219.242V219.865H196.123C196.865 219.865 197.187 220.152 197.187 220.593C197.187 221.048 196.802 221.335 196.151 221.335C195.598 221.335 195.066 221.146 194.716 220.852L194.324 221.559C194.779 221.916 195.472 222.126 196.165 222.126C197.481 222.126 198.104 221.412 198.104 220.586C198.104 219.851 197.635 219.298 196.711 219.179ZM200.711 220.474H202.636V219.746H200.711V220.474ZM207.488 219.032C206.942 219.032 206.473 219.2 206.179 219.543V219.536C206.179 218.423 206.76 217.849 207.684 217.849C208.027 217.849 208.349 217.912 208.615 218.087L208.951 217.401C208.622 217.191 208.153 217.086 207.663 217.086C206.242 217.086 205.262 218.01 205.262 219.69C205.262 221.265 206.046 222.126 207.383 222.126C208.384 222.126 209.175 221.51 209.175 220.537C209.175 219.62 208.454 219.032 207.488 219.032ZM207.334 221.412C206.683 221.412 206.319 221.048 206.319 220.586C206.319 220.103 206.725 219.746 207.313 219.746C207.908 219.746 208.293 220.068 208.293 220.579C208.293 221.09 207.901 221.412 207.334 221.412ZM213.279 218.276C212.677 218.276 212.096 218.43 211.697 218.738L212.04 219.375C212.32 219.144 212.754 219.004 213.174 219.004C213.797 219.004 214.105 219.305 214.105 219.816V219.872H213.139C212.005 219.872 211.585 220.362 211.585 220.985C211.585 221.636 212.124 222.105 212.978 222.105C213.538 222.105 213.944 221.923 214.154 221.601V222.056H214.98V219.865C214.98 218.787 214.357 218.276 213.279 218.276ZM213.16 221.468C212.712 221.468 212.446 221.265 212.446 220.95C212.446 220.677 212.607 220.453 213.202 220.453H214.105V220.887C213.958 221.272 213.587 221.468 213.16 221.468ZM217.622 217.52C217.804 217.52 217.972 217.583 218.105 217.674L218.35 217.016C218.154 216.876 217.86 216.813 217.559 216.813C216.691 216.813 216.222 217.324 216.222 218.108V218.346H215.606V219.046H216.222V222.056H217.097V219.046H218.098V218.346H217.069V218.122C217.069 217.723 217.258 217.52 217.622 217.52ZM220.689 221.23C220.556 221.335 220.381 221.384 220.199 221.384C219.863 221.384 219.681 221.188 219.681 220.824V219.046H220.682V218.346H219.681V217.492H218.806V218.346H218.19V219.046H218.806V220.845C218.806 221.671 219.275 222.105 220.094 222.105C220.409 222.105 220.724 222.021 220.934 221.853L220.689 221.23ZM225.045 220.208C225.045 219.039 224.247 218.276 223.155 218.276C222.042 218.276 221.223 219.074 221.223 220.187C221.223 221.3 222.035 222.105 223.288 222.105C223.932 222.105 224.457 221.895 224.793 221.496L224.324 220.957C224.058 221.23 223.729 221.363 223.309 221.363C222.658 221.363 222.203 221.013 222.098 220.467H225.031C225.038 220.383 225.045 220.278 225.045 220.208ZM223.155 218.976C223.729 218.976 224.142 219.347 224.212 219.886H222.091C222.175 219.34 222.588 218.976 223.155 218.976ZM226.719 218.864V218.318H225.886V222.056H226.761V220.243C226.761 219.48 227.181 219.088 227.846 219.088C227.909 219.088 227.972 219.095 228.049 219.109V218.276C227.426 218.276 226.971 218.472 226.719 218.864ZM232.86 217.156H230.844V222.056H231.754V220.642H232.86C234.148 220.642 234.946 219.977 234.946 218.899C234.946 217.814 234.148 217.156 232.86 217.156ZM232.818 219.872H231.754V217.926H232.818C233.616 217.926 234.029 218.283 234.029 218.899C234.029 219.515 233.616 219.872 232.818 219.872ZM239.271 220.208C239.271 219.039 238.473 218.276 237.381 218.276C236.268 218.276 235.449 219.074 235.449 220.187C235.449 221.3 236.261 222.105 237.514 222.105C238.158 222.105 238.683 221.895 239.019 221.496L238.55 220.957C238.284 221.23 237.955 221.363 237.535 221.363C236.884 221.363 236.429 221.013 236.324 220.467H239.257C239.264 220.383 239.271 220.278 239.271 220.208ZM237.381 218.976C237.955 218.976 238.368 219.347 238.438 219.886H236.317C236.401 219.34 236.814 218.976 237.381 218.976ZM241.437 218.276C240.835 218.276 240.254 218.43 239.855 218.738L240.198 219.375C240.478 219.144 240.912 219.004 241.332 219.004C241.955 219.004 242.263 219.305 242.263 219.816V219.872H241.297C240.163 219.872 239.743 220.362 239.743 220.985C239.743 221.636 240.282 222.105 241.136 222.105C241.696 222.105 242.102 221.923 242.312 221.601V222.056H243.138V219.865C243.138 218.787 242.515 218.276 241.437 218.276ZM241.318 221.468C240.87 221.468 240.604 221.265 240.604 220.95C240.604 220.677 240.765 220.453 241.36 220.453H242.263V220.887C242.116 221.272 241.745 221.468 241.318 221.468ZM247.082 222.056H248.146L246.438 219.886L247.999 218.318H246.949L245.136 219.998V216.862H244.261V222.056H245.136V221.069L245.787 220.453L247.082 222.056Z" fill="#112D35"/>
<circle cx="2.73148" cy="194.481" r="2.73148" fill="#112D35"/>
<circle cx="292.269" cy="194.481" r="2.73148" fill="#112D35"/>
<g style="mix-blend-mode:multiply" filter="url(#filter2_d_0_1329)">
<circle cx="147.5" cy="193.935" r="13.6574" fill="#FAFAFA"/>
</g>
<circle cx="147.5" cy="193.935" r="13.6574" fill="#FAFAFA"/>
<path fill-rule="evenodd" clip-rule="evenodd" d="M147.5 199.108L142.784 194.391C141.913 193.521 141.913 192.107 142.784 191.237C143.655 190.365 145.068 190.365 145.939 191.237L147.5 192.798L149.062 191.237C149.932 190.365 151.346 190.365 152.217 191.237C153.088 192.107 153.088 193.521 152.217 194.391L147.5 199.108Z" fill="#EC6D8F"/>
<defs>
<filter id="filter0_b_0_1329" x="-11.0257" y="60.539" width="305.58" height="148.792" filterUnits="userSpaceOnUse" color-interpolation-filters="sRGB">
<feFlood flood-opacity="0" result="BackgroundImageFix"/>
<feGaussianBlur in="BackgroundImageFix" stdDeviation="7.42494"/>
<feComposite in2="SourceAlpha" operator="in" result="effect1_backgroundBlur_0_1329"/>
<feBlend mode="normal" in="SourceGraphic" in2="effect1_backgroundBlur_0_1329" result="shape"/>
</filter>
<filter id="filter1_b_0_1329" x="-13.2107" y="67.6409" width="317.598" height="141.557" filterUnits="userSpaceOnUse" color-interpolation-filters="sRGB">
<feFlood flood-opacity="0" result="BackgroundImageFix"/>
<feGaussianBlur in="BackgroundImageFix" stdDeviation="7.42494"/>
<feComposite in2="SourceAlpha" operator="in" result="effect1_backgroundBlur_0_1329"/>
<feBlend mode="normal" in="SourceGraphic" in2="effect1_backgroundBlur_0_1329" result="shape"/>
</filter>
<filter id="filter2_d_0_1329" x="124.009" y="173.722" width="46.9816" height="46.9815" filterUnits="userSpaceOnUse" color-interpolation-filters="sRGB">
<feFlood flood-opacity="0" result="BackgroundImageFix"/>
<feColorMatrix in="SourceAlpha" type="matrix" values="0 0 0 0 0 0 0 0 0 0 0 0 0 0 0 0 0 0 127 0" result="hardAlpha"/>
<feOffset dy="3.27778"/>
<feGaussianBlur stdDeviation="4.91667"/>
<feColorMatrix type="matrix" values="0 0 0 0 0 0 0 0 0 0 0 0 0 0 0 0 0 0 0.152699 0"/>
<feBlend mode="normal" in2="BackgroundImageFix" result="effect1_dropShadow_0_1329"/>
<feBlend mode="normal" in="SourceGraphic" in2="effect1_dropShadow_0_1329" result="shape"/>
</filter>
<linearGradient id="paint0_linear_0_1329" x1="114.449" y1="87.9185" x2="117.265" y2="241.039" gradientUnits="userSpaceOnUse">
<stop stop-color="#78B1FA"/>
<stop offset="1" stop-color="#BCE8ED"/>
</linearGradient>
<linearGradient id="paint1_linear_0_1329" x1="86.8455" y1="276.227" x2="53.532" y2="110.943" gradientUnits="userSpaceOnUse">
<stop stop-color="#3BBCD4"/>
<stop offset="1" stop-color="#BCE8ED"/>
</linearGradient>
<linearGradient id="paint2_linear_0_1329" x1="1.63915" y1="194.481" x2="122.406" y2="6.73802" gradientUnits="userSpaceOnUse">
<stop stop-color="#AA92E1"/>
<stop offset="1" stop-color="#EEEDFF"/>
</linearGradient>
<linearGradient id="paint3_linear_0_1329" x1="147.773" y1="194.066" x2="147.773" y2="19.1204" gradientUnits="userSpaceOnUse">
<stop/>
<stop offset="0.632375"/>
<stop offset="1" stop-opacity="0.01"/>
</linearGradient>
</defs>
</svg>
