<svg width="26" height="16" viewBox="0 0 26 16" fill="none" xmlns="http://www.w3.org/2000/svg">
<path d="M1.2666 6.99951C0.714317 6.99951 0.266602 7.44723 0.266602 7.99951C0.266602 8.5518 0.714317 8.99951 1.2666 8.99951L1.2666 6.99951ZM25.4404 8.70662C25.8309 8.31609 25.8309 7.68293 25.4404 7.2924L19.0764 0.928444C18.6859 0.53792 18.0527 0.53792 17.6622 0.928444C17.2717 1.31897 17.2717 1.95213 17.6622 2.34266L23.3191 7.99951L17.6622 13.6564C17.2717 14.0469 17.2717 14.6801 17.6622 15.0706C18.0527 15.4611 18.6859 15.4611 19.0764 15.0706L25.4404 8.70662ZM1.2666 8.99951L24.7333 8.99951V6.99951L1.2666 6.99951L1.2666 8.99951Z" fill="white"/>
</svg>
