<svg width="182" height="88" viewBox="0 0 182 88" fill="none" xmlns="http://www.w3.org/2000/svg">
<path fill-rule="evenodd" clip-rule="evenodd" d="M128.749 102.767C147.316 109.574 167.961 100.004 174.767 81.4346C181.574 62.8653 172.004 42.2223 153.434 35.4159C134.865 28.6095 114.22 38.1775 107.414 56.7488C100.607 75.3181 110.179 95.9611 128.749 102.767ZM2.39194 18.2531C6.78581 6.26643 20.064 0.11089 32.0506 4.50682C38.5593 6.8906 43.3269 11.9066 45.6429 17.902L45.6552 17.8691C49.9259 28.9154 67.5938 44.7519 92.7539 19.986L92.7436 20.0168C111.149 1.9403 139.015 -5.05705 164.805 4.39595C200.478 17.4729 218.862 57.1307 205.787 92.8032C192.713 128.478 153.053 146.862 117.378 133.787C91.5897 124.334 74.8458 100.987 72.4805 75.2975L72.4681 75.3283C69.2733 40.1691 45.5567 40.8364 35.1571 46.5053L35.1694 46.4745C29.5293 49.5543 22.6489 50.2976 16.1403 47.9138C4.15359 43.5199 -2.00194 30.2397 2.39194 18.2531Z" fill="#111111" fill-opacity="0.04"/>
</svg>
